# xmcd
# 
# Track frame offsets:
#     180
#     23503
#     41817
#     67583
#     91545
#     114801
#     134654
#     157088
#     171607
#     184804
#     211138
#     255517
#     283860
# 
# Disc length: 4051
# 
# Revision: 3
# Processed by: cddbd v1.5.2PL0 Copyright (c) Steve Scherf et al.
# Submitted via: BonkEnc v1.0
# 
DISCID=ae0fd10d
DTITLE=Mississippi Mudsharks - Workin' For Nickels and Dimes
DYEAR=0
DGENRE=Blues
TTITLE0=Workin' For Nickels And Dimes
TTITLE1=Bad, Bad World
TTITLE2=Never Satisfied Man
TTITLE3=Feelin' All Out Of My Head
TTITLE4=Dance Mama Dance
TTITLE5=Boogie Shack
TTITLE6=Sidetracked
TTITLE7=Stealin' Me Blind
TTITLE8=Don't Be Skimpin' On The Gravy
TTITLE9=The Highway And The Freeway
TTITLE10=So Much To Lose
TTITLE11=Baby What You Do?
TTITLE12=Left-overs
EXTD=input by Sandy Larsen (olarsen@telusplanet.net) ID3G: 0
EXTT0=
EXTT1=
EXTT2=
EXTT3=
EXTT4=
EXTT5=
EXTT6=
EXTT7=
EXTT8=
EXTT9=
EXTT10=
EXTT11=
EXTT12=
PLAYORDER=
